<svg width="770" height="657" fill="none" xmlns="http://www.w3.org/2000/svg"><g clip-path="url(#clip0)"><path d="M161.78 83.53c25.34 1.7 35.96-15.58 47.85-37.8 32.59-60.81 105.2-54.96 129.54-17.51 17.25 26.53 54.45 21.06 84.53 10.69 29.6-10.22 80.06-20.03 120.27-7.82 35.1 10.67 49.5 49.14 81.5 46.77 69.82-5.16 105 63.71 92.35 93.77-8.25 19.6-12.34 41.54-5.64 61.72 7.38 22.22 24.27 39.81 37.91 58.91 13.65 19.1 24.63 43 17.85 65.4-5.81 19.2-23.12 32.46-33.86 49.4-33.37 52.66-.36 133.37-44.83 177.27-31.83 31.41-83.71 24.16-128.25 30.17-37.13 5-72.08 20.6-109.05 26.69-74.88 12.37-150.48-14.87-226.38-15.65-26.73-.28-53.97 2.7-79.86-3.88-34.56-8.79-63.96-35.37-75.95-68.63-16.55-45.9-.88-99.02-19.55-144.1C35 372.2-2.24 342.3.11 302.68c1.46-24.69 18.32-45.31 29.92-67.2 17.23-32.52-5.6-161.12 131.75-151.95zm220.94-59.58c-6.67 0-12.06 4.14-12.06 9.23 0 5.1 5.42 8.79 12.06 9.23 21.66 1.43 21.66-7.32 21.66-12.42 0-8.15-15-6.04-21.66-6.04zm219.95 39.38a35.66 35.66 0 0020.7 8.03c2 .1 4.2-.04 5.74-1.3a4.7 4.7 0 00.42-6.6c-1.07-1.14-2.63-1.64-4.09-2.24-2.48-1-4.9-2.45-6.3-4.7-.41-.65-.77-1.41-1.43-1.79-4.17-2.35-22.67 2.3-15.04 8.6zm36.89 8.16c1.91.66 3.99.04 5.92-.57 1.23-.4 2.74-1.28 2.42-2.52-.16-.6-.72-.99-1.27-1.28-2.53-1.34-5.8-2.35-8.34-.61-2.54 1.72-.63 4.33 1.27 4.98zm88.08 173.95c.32 2.88 2.1 5.36 3.81 7.7 3.31 4.5 6.67 9.07 11.03 12.6 1.85 1.49 4 2.81 6.38 2.9 2.17.08 4.25-.91 6-2.18a19.13 19.13 0 007.77-13.18c.81-7.14-2.51-14.1-6.37-20.18-2.4-3.76-5.2-7.52-9.19-9.53-6.71-3.4-11.14-.44-13.02 5.51-1.7 5.48-7.11 10.27-6.41 16.36zM13.17 411.67c-3.53 3.11-.34 12.23.7 18.24.3 1.8.73 3.67 1.87 5.11 1.55 1.96 4.15 2.78 6.57 3.49 4.3 1.25 9.52 2.3 12.81-.71 2.44-2.24 2.8-5.9 2.78-9.2 0-3.02-.16-6.02-.49-9.02-.15-1.44-.36-2.92-1.14-4.15-.98-1.57-2.74-2.48-4.44-3.2-6.15-2.6-15.12-3.66-18.66-.56zm216.14 228.29c-2.1.42-4.6 1.33-4.9 3.42-.25 1.73 1.2 3.2 2.6 4.25 11.54 8.6 27.09 9.16 41.53 9.35 1.68.02 3.44.04 4.98-.61 3.08-1.3 4.57-5.37 3.13-8.37a10.03 10.03 0 00-2.22-2.87c-11.59-11.3-30.67-8.06-45.12-5.17zm288.23-5.83c-13.03 9.52.14 18.04 16.6 11.73 8.85-3.4 17.36-6.76 26.44-9.03 2.94-.73 20.67-4.58 20.67-8.55 0-10.56-19.97-8.06-32.54-6.3-10.14 1.4-20.43 4.3-31.17 12.15z" fill="#ECF3FF"/><path d="M272.74 606.61c34.63 0 62.7-2.62 62.7-5.85 0-3.23-28.07-5.86-62.7-5.86s-62.7 2.63-62.7 5.86c0 3.23 28.07 5.85 62.7 5.85zM594.86 606.61c34.63 0 62.7-2.62 62.7-5.85 0-3.23-28.07-5.86-62.7-5.86s-62.7 2.63-62.7 5.86c0 3.23 28.07 5.85 62.7 5.85z" fill="#C8DBFB"/><path d="M727.35 188.49a87.61 87.61 0 00-.59-3.2" stroke="#C8DBFB" stroke-linecap="round" stroke-linejoin="round"/><path d="M725.22 179.02c-11.18-38.08-46.85-34.4-79.09-34.33-34.7.06-571.9 1.18-571.9 1.18-54 .12-48.76 78.02-6.5 77.92 24.3-.04 33.56 45.58-8.46 45.66-25.22.04-26.03 32-9.07 38.4" stroke="#C8DBFB" stroke-linecap="round" stroke-linejoin="round" stroke-dasharray="3.99 3.99"/><path d="M53.31 308.68c1.02.17 2.11.27 3.25.25" stroke="#C8DBFB" stroke-linecap="round" stroke-linejoin="round"/><path d="M63.18 307.46a7.78 7.78 0 11-15.35 2.6 7.78 7.78 0 0115.35-2.6zM734.99 192a7.76 7.76 0 11-15.27-2.79 7.76 7.76 0 0115.27 2.78zM142.38 250.73a135.28 135.28 0 01-4.75 18.55c-4.3 13.12-10.24 25.76-16.24 38.23-3.13 6.52-15.84 21.6-22.65 24.47.8-17.01.86-36.88-1.12-54.05-1.9-16.54 4.05-29.08-2.43-44.42-.83-1.96-1.7-3.93-2.55-5.89-3.23-7.3-6.43-14.63-7.43-22.5-1.3-9.96 1.8-21.33 10.43-26.52 6.21-3.73 14.3-3.54 20.94-.6 6.64 2.93 11.96 8.3 16 14.32 11.3 16.8 13.35 38.5 9.8 58.41z" fill="#5193F4"/><path d="M112.2 195.64c12.7 17.94 13.81 38.83 14.91 60.77a117.04 117.04 0 01-15.02 63.28" stroke="#0B43A4" stroke-miterlimit="10" stroke-linecap="round" stroke-linejoin="round"/><path d="M111.67 526.44c-8.9-7.87-17.91-15.85-24.5-25.74-5.73-8.61-9.42-18.39-14.42-27.45-3.23-5.86-7.06-11.52-8.92-17.94-1.87-6.42-1.43-14.05 3.14-18.93 4.77-5.1 12.97-5.88 19.44-3.26 6.47 2.63 11.42 8.08 15.18 13.95a66.5 66.5 0 019.77 25.83c1.27 8.3.94 16.8 2.24 25.1 1.2 7.74 3.81 15.17 7.09 22.26 2.97 6.42 10.51 17.89 12.43 24.47-5.34 2.64-17.65-14.94-21.45-18.3z" fill="#00AD9F"/><path d="M80.54 444.87c8.46 3.7 11.82 13.8 13.6 22.86 2 10.31 1.55 21.49 6.29 30.88 8.92 17.7 20.52 37.82 29.15 43.83" stroke="#00AD9F" stroke-miterlimit="10" stroke-linecap="round" stroke-linejoin="round"/><path d="M67.85 502.24c-7.38-2.92-17.26-4.12-22 2.25-3.96 5.34-1.92 12.91.83 18.96 2.32 5.11 5.25 10.32 10.12 13.09 3.33 1.9 7.24 2.47 11.05 2.92a264.2 264.2 0 0032.02 1.85c12.4-.03 27.42 5.03 37.7 12.76-13.18-24.46-44.85-42.02-69.72-51.83z" fill="#0056EC"/><path d="M54.89 518.13c9.4.4 18.9 1.06 27.92 3.73 9.23 2.73 44.74 19.03 50.29 25.95" stroke="#0B43A4" stroke-miterlimit="10" stroke-linecap="round" stroke-linejoin="round"/><path d="M148.45 452.03a62.65 62.65 0 00-43.77-27.94c-13.08-1.75-26.53.68-39.44-2.03a50.85 50.85 0 01-32.87-23.5 50.94 50.94 0 01-4.95-40.08c3.03-10.09 9.96-19.66 19.99-22.88 5.46-1.76 11.43-1.51 17.01-.18a47.15 47.15 0 0114.36 6.2c10.1 6.38 18.25 16.2 24.39 26.65 5.56 9.49 19.29 24.26 28.63 33.88a521.6 521.6 0 009.46 9.45c6.4 7.98 3.4 30.95 7.19 40.43z" fill="#52D2BC"/><path d="M44.47 364.77c31.43 14.17 65.69 32.76 87.98 59.06" stroke="#00AD9F" stroke-miterlimit="10" stroke-linecap="round" stroke-linejoin="round"/><path opacity="0.2" d="M135.47 420.3s-46.82-37.95-56.7-78.67c10.09 6.39 18.25 16.22 24.38 26.66 5.57 9.48 19.3 24.26 28.64 33.88 1.1 5.09 2.32 11.07 3.68 18.13zM137.63 269.28c-4.3 13.12-10.24 25.76-16.24 38.23-3.14 6.52-15.84 21.6-22.65 24.47.8-17.01.86-36.88-1.12-54.05-1.9-16.54 4.05-29.08-2.44-44.42a459.8 459.8 0 00-2.54-5.89c.6.2 1.18.4 1.75.65 10.67 4.57 15.6 15.86 16.52 26.82.76 9.05-.88 18.12-2.1 27.12-.56 4.15-1.02 8.4-.13 12.47.02.05.04.08.04.13 1.11 4.85 8.2 4.57 9.11-.34l2.84-15.07c.85-4.5 1.77-9.22 5.47-12.37a7.81 7.81 0 015.26-1.96c3.05.11 4.96 1.9 6.23 4.21z" fill="#5275A0"/><path d="M135.47 410.8c-7.4-38.62-11.3-44.57-8.03-54.25 4.15-12.34 1.81-24.73 5.72-37.16 3.91-12.4 6.58-25.75 3.43-38.38-1-4-3.02-8.34-7.82-8.51a7.78 7.78 0 00-5.26 1.96c-3.7 3.14-4.62 7.86-5.47 12.37l-2.82 15.07c-.92 4.9-8 5.19-9.12.32l-.03-.13c-.9-4.07-.44-8.32.12-12.47 1.21-9.02 2.85-18.07 2.1-27.13-.9-10.96-5.84-22.25-16.53-26.8a18.88 18.88 0 00-12.05-.97c-11.15 2.86-14.04 13.76-12.4 23.05 1.15 6.55 4.22 12.57 7 18.6 6.78 14.74 1.8 28.27 2.74 44.47 2.6 44.74 58.42 89.95 58.42 89.95z" fill="#7EE8D4"/><path d="M85.73 246.43c5.5 27.47 11.06 55.14 21.74 81.06 3.13 7.59 4.65 17.6 22.78 38.25" stroke="#00AD9F" stroke-miterlimit="10" stroke-linecap="round" stroke-linejoin="round"/><path d="M300.29 253.47c-5.7-6.5-10.95-13.12-16.49-19.5a171.32 171.32 0 00-11.3-12c-2-1.9-4.06-3.75-6.23-5.55a174.93 174.93 0 00-42.53-25.97c-9.25-3.95-19.01-7.21-26.86-13.52-7.86-6.3-13.5-16.64-10.89-26.36 1.9-7 7.85-12.45 14.68-14.95 6.82-2.48 14.38-2.28 21.47-.76 19.79 4.27 36.32 18.49 47.56 35.3.2.3.41.6.6.91 8.25 12.57 14 26.55 19.02 40.79 1.6 4.57 3.13 9.18 4.64 13.77 2.27 6.86 9.25 21.05 6.33 27.84z" fill="#5193F4"/><path d="M209.74 151.39c21.6 4.12 36.88 18.4 52.9 33.45a117.11 117.11 0 0133.06 56.01" stroke="#0B43A4" stroke-miterlimit="10" stroke-linecap="round" stroke-linejoin="round"/><path opacity="0.2" d="M283.8 233.98a25.5 25.5 0 00.31 6.75c-5.4-1.24-9.15-9.62-11.61-18.75a140.79 140.79 0 01-4-22.9 99.06 99.06 0 011.8-28c8.25 12.56 14 26.54 19.02 40.78-1.72 5.1-3.2 10.28-4.41 15.5a45 45 0 00-1.1 6.62z" fill="#5275A0"/><path d="M321.26 156.06c-1.83 8.09-6.71 15.08-11.03 22.18a174.58 174.58 0 00-20.75 50.74c-1.05 4.46-1.64 8.84-.8 13.37-10.64-2.44-14.89-32.68-15.6-41.66a97.88 97.88 0 018.14-47.6c2.9-6.5 6.67-12.9 12.46-17.06 5.78-4.17 13.96-5.63 20.07-2 3.69 2.2 6.06 5.83 7.2 9.96a24.5 24.5 0 01.31 12.07z" fill="#52D2BC"/><path d="M284.63 233.43c-6.62-16.63-2.6-51.8 8.02-73.9 3.2-6.67 7.75-12.91 14.13-16.63" stroke="#00AD9F" stroke-miterlimit="10" stroke-linecap="round" stroke-linejoin="round"/><path opacity="0.2" d="M321.26 156.06c-1.83 8.09-6.71 15.08-11.03 22.18-2.27 3.73-4.4 7.58-6.37 11.47-2.9-4.9-4.9-10.3-5.46-15.94-.89-9.43 2.72-19.51 10.37-25.06a27.8 27.8 0 0112.19-4.72 24.5 24.5 0 01.3 12.07z" fill="#5275A0"/><path d="M382.67 226.46c-.5 3.1-1.43 6.08-2.76 8.95-4.72 10.21-14.63 18.97-29.48 26.1 0 0-.82-16.15-1-20.48-.73-18.52-20.83-28.75-33.55-42.26-6.48-6.89-11.4-15.58-12.3-25-.9-9.43 2.71-19.51 10.37-25.06 6.42-4.64 14.83-5.64 22.74-5.04 12.75 1.02 25.62 6.35 33.55 16.31.34.37.64.78.93 1.17 4.85 6.63 7.35 14.7 9.18 22.75 3.18 13.93 4.6 28.43 2.32 42.56z" fill="#00AD9F"/><path d="M319.43 158.63c13.92 7.2 27.86 15.9 35.95 29.3 11.31 18.7 8.85 43.02.13 63.04" stroke="#00AD9F" stroke-miterlimit="10" stroke-linecap="round" stroke-linejoin="round"/><path d="M615.48 345.9c8.88-14.6 4.34-33.38 7.43-50.17a55.43 55.43 0 0119.85-33.05c6.45-5.12 15.52-8.79 22.8-4.94 1.58.82 3.46 2 4.99 1.07.9-.55 1.26-1.69 1.49-2.73 1.85-9.06-2.51-18.97 1.06-27.52 1.9-4.6 5.88-8.04 10.09-10.72a55.02 55.02 0 0127.2-8.53c2.55-.1 5.21 0 7.5 1.14 4.12 2.06 6 7.2 5.45 11.77-.55 4.57-3.08 8.68-5.87 12.34-9.32 12.18-22.96 22.7-24.76 37.9-.23 1.92-.23 3.96.65 5.68.86 1.67 2.45 2.85 3.34 4.49 2.87 5.27-2.68 11.25-8.08 13.83a46.82 46.82 0 01-15.77 4.37c-3.76.35-8 .43-10.56 3.2-4.72 5.13.7 13.32-.3 20.21-.6 4.3-3.72 7.77-6.87 10.79A124.38 124.38 0 01636.14 350c-5.52 3.53-11.34 6.64-16.23 11-4.88 4.34-8.82 10.22-9.15 16.76" fill="#52D2BC"/><path d="M627.16 331.69c1.45-7.07 4.74-13.63 8-20.06 5.1-10.07 10.29-20.3 17.98-28.55 5.84-6.27 12.96-11.23 18.9-17.41a64.98 64.98 0 0010.68-14.83c1.54-2.93 2.87-6.01 4.93-8.59 2.46-3.06 5.82-5.25 8.76-7.88a37.4 37.4 0 009.28-12.8" stroke="#00AD9F" stroke-miterlimit="10" stroke-linecap="round" stroke-linejoin="round"/><path d="M742.86 356.01c-2 7.69-4.97 15.3-10.06 21.4a45.64 45.64 0 01-12.69 10.22 71.29 71.29 0 01-7.67 3.75 92.15 92.15 0 01-32.08 7.1c-16.03.6-32.5-2.93-47.89 1.64a47.18 47.18 0 00-18.9 10.95 45.97 45.97 0 00-8.49 10.72l2.1-13.3c3.88-14.3 7.83-28.87 15.75-41.4 5.11-8.13 11.75-15.2 18.8-21.7 11.28-10.41 23.79-19.57 37.6-26.27 11.16-5.42 23.55-9.23 35.88-7.72 12.32 1.5 24.42 9.28 28.26 21.06 2.47 7.58 1.4 15.85-.61 23.55z" fill="#5193F4"/><path d="M617.66 398.37a97.22 97.22 0 0149.37-37.46c12.42-4.15 25.58-5.73 38.17-9.36 12.6-3.63 25.16-9.8 32.55-20.63" stroke="#0B43A4" stroke-miterlimit="10" stroke-linecap="round" stroke-linejoin="round"/><path d="M625.41 526.11c.7-17.88 9.95-34.4 21.2-48.34 9.35-11.63 20.66-22.27 34.63-27.57 4.38-1.65 9.18-2.77 13.73-1.65 4.54 1.12 8.66 5 8.74 9.68.06 3.94-2.58 7.4-5.37 10.18-9.18 9.2-21.04 15.08-32.17 21.8-19.11 11.54-37.28 26.95-44.86 47.95" fill="#52D2BC"/><path d="M632.49 510.46c11.68-26.04 41.92-49.33 61.86-52.23" stroke="#00AD9F" stroke-miterlimit="10" stroke-linecap="round" stroke-linejoin="round"/><path d="M618.11 540.34c-.16-3 9.62-10.84 11.83-12.83a113.06 113.06 0 0142.05-24.02c6.2-1.95 12.8-3.36 19-1.87 6.21 1.5 11.9 6.59 12.5 13.27.6 6.49-3.75 12.84-9.32 15.97-5.56 3.15-12.05 3.62-18.25 3.26-9.57-.55-18.98-2.93-28.59-2.87-9.62.08-23.12 1.06-29.22 9.09z" fill="#00AD9F"/><path d="M628.07 531.24c19.65-10.64 49.36-17.57 70.93-14.96" stroke="#00AD9F" stroke-miterlimit="10" stroke-linecap="round" stroke-linejoin="round"/><path opacity="0.2" d="M382.67 226.45c-.5 3.1-1.43 6.09-2.76 8.96-6.9-14.62-12.96-33.69-14.42-57.1a31.65 31.65 0 014.75-18.33c.34.37.64.78.93 1.17 4.85 6.63 7.35 14.7 9.18 22.75 3.18 13.93 4.6 28.43 2.32 42.55z" fill="#5275A0"/><path d="M450.63 225.63c14.67-5.2 29.92-9.36 43.26-17.4 4.04-2.44 7.91-5.26 10.79-8.99 2.85-3.73 4.62-8.5 3.99-13.17-.65-4.73-3.69-9.27-2.67-13.96.69-3.08 3-5.48 4.76-8.1a25.92 25.92 0 003.33-21.54c-2.3-7.72-8.1-13.92-11.4-21.26a35.5 35.5 0 01-2.74-19.3c-12.31.16-23.54 6.89-35.64 9.13-9.26 1.72-18.88.78-28.07 2.88-16.72 3.85-30.42 18.57-33.01 35.54a24.42 24.42 0 00-21.52 7.2 31.66 31.66 0 00-8.43 23.12c3.78 60.7 38.55 92.36 38.55 92.36s33.2-44.52 38.8-46.51z" fill="#7EE8D4"/><path d="M417.81 225.2c-1.52-14.96 3.72-29.77 9.72-43.57 5.86-13.44 12.6-26.63 21.66-38.17 9.05-11.55 20.56-21.44 34.13-27.02M430.87 125.63c-1.54 13.35-.45 29.44 3.02 42.41M436.39 163.26c15.25-9.78 38.7-15.72 56.8-14.68M399.09 165.75c18.37 7.74 19.11 34.72 19.62 42.4M423.7 190.99c14.05-10.07 34.35-13.1 49.29-9.34M462.04 118.7a22.18 22.18 0 00-4.85 15.69M461.18 130.58c6.47-3.3 15.14-4.07 24.4-1.75" stroke="#00AD9F" stroke-miterlimit="10" stroke-linecap="round" stroke-linejoin="round"/><path d="M99.94 159.95c1.72-.1 13.5-8.8 18.02-11.74a12.26 12.26 0 003.46-2.92c.9-1.23 1.31-2.92.66-4.3-.8-1.7-2.14-3.4-5.5-3.4-5.85.01-7.9 1.94-10.75 4.88-9.43 9.74-5.9 17.48-5.9 17.48zM152.72 195.1c5.12 2.3 10.59 4.58 16.17 3.87 2.16-.28 4.53-1.27 5.24-3.31.62-1.75-.23-3.78-1.62-5.01-1.4-1.24-3.23-1.84-5.05-2.27-6.81-1.67-16.4-.75-23.15 1.16-.02 0 5.34 4.17 8.4 5.55zM186.46 119.42c-2.29-1.44-4.82-3.37-4.8-6.08 0-2.7 2.82-4.77 5.53-4.78 2.71-.02 5.22 1.46 7.27 3.26 8.61 7.57 7.54 16.2 7.54 16.2s-13-7-15.54-8.6zM193.26 96.35c-2.01-.86-4.07-1.9-5.26-3.75-.57-.9-.89-2.03-.55-3.03.59-1.67 1.64-3.18 5.87-2.42 13.39 2.43 16.3 11.6 16.3 11.6s-12.8-.88-16.36-2.4zM232.47 116.62c5.37-.47 10.92-3.13 14.3-7.33 1.28-1.6 2.44-3.33 2.87-5.32.42-2-.04-4.27-1.58-5.6-1.88-1.62-4.86-1.36-6.93 0-2.07 1.36-3.4 3.6-4.47 5.82-1.43 2.99-4.19 12.43-4.19 12.43z" fill="#4A49CA"/><path d="M136.6 312.3l-39-34.37c-6.92-6.1-14-12.4-18.38-20.52-9.42-17.46-3.99-40.15 8.75-55.38 12.73-15.23 31.39-24.21 50.14-30.75 18.74-6.53 38.26-11.12 56.12-19.78 11.21-5.43 22.47-13.5 25.56-25.58 1.84-7.24.29-15.3-4.13-21.34a25.86 25.86 0 00-19.1-10.4M241.56 104.16c-3.56 10.9-17.4 17.53-23.7 26.99" stroke="#0B43A4" stroke-miterlimit="10" stroke-linecap="round" stroke-linejoin="round"/><path d="M191.88 116.7c2.72 2.87 5.99 5.25 8.37 8.41 5.03 6.7 5.44 17.58-2 24.33M121.87 177.74c11.47 8.84 26.55 14.72 41.02 15.27M95.62 193.83c-5.29-15.57.47-34.22 13.61-44.1" stroke="#0B43A4" stroke-miterlimit="10" stroke-linecap="round" stroke-linejoin="round"/><path d="M514.86 128.05c-.61-1.93-.58-4.3.83-5.74 1.14-1.14 3.02-1.66 4.5-1 11.4 5 10.17 22.8 10.17 22.8s-10.8-1.56-15.5-16.06zM514.59 161.38c-7.38 13.33 18.83 12.3 28.3 4.46 0 0-21.94-15.95-28.3-4.46zM547.75 129.07c-1.78-2.43-2.42-6.06-.47-8.38 1.44-1.72 3.96-2.26 6.16-1.83 2.21.42 5.52 2.46 6.93 4.21 8.63 10.74 4.58 21.23 4.58 21.23s-14.3-11.24-17.2-15.23zM651.87 162.07c-.63-2.07-.48-4.6 1.12-6.06a5.15 5.15 0 013.83-1.15c1.36.1 2.68.6 3.93 1.16a12.47 12.47 0 016.03 6c3.25 6.69 1.04 14.94 1.04 14.94s-14.36-9.71-15.95-14.89zM619.12 186.53c-4.64-4.07-11.73-5.27-17.4-2.8a8.85 8.85 0 00-3.7 2.8c-2.09 2.87-1.36 7.05.8 9.86 2.14 2.8 5.4 4.5 8.63 5.97 5.84 2.64 14.9 3.17 21.11 4.76-.01-.01-.03-12.34-9.44-20.6z" fill="#4A49CA"/><path d="M523.04 130.92c3.86 12.62 14.78 22.15 26.93 27.3 12.15 5.15 25.54 6.51 38.73 7.36 13.17.85 26.5 1.28 39.24 4.73 12.41 3.37 24.8 10.38 30.11 22.09 6.5 14.25.75 31.28-8.37 44.03-9.1 12.73-21.36 23-30.17 35.94-4.04 5.93-7.43 12.9-6.6 20.04 1.08 9.52 9.11 16.52 16.56 22.56M553.41 126.28c8.73 9.65 15.7 24.75 17.41 37.66" stroke="#0B43A4" stroke-miterlimit="10" stroke-linecap="round" stroke-linejoin="round"/><path d="M524.05 163.58c5 1.33 10.06 2.66 15.21 2.68 5.16.01 11.15-2.86 14.87-6.44M660.42 162.85a25.8 25.8 0 017.78 17.37c.24 6.5-3.36 14.37-7.7 19.22M611.48 192.33c9.34 8.6 17.47 15.56 27.85 22.85 4.74 3.34 14.15 7.6 18.34 6.5" stroke="#0B43A4" stroke-miterlimit="10" stroke-linecap="round" stroke-linejoin="round"/><path opacity="0.2" d="M720.11 387.63a71.2 71.2 0 01-7.67 3.75 92.15 92.15 0 01-32.08 7.1c-16.03.6-32.51-2.93-47.9 1.64a47.2 47.2 0 00-18.9 10.95c-.53.26-1.06.55-1.6.86-1.28-10.85 25.78-25 34-28.67a98.07 98.07 0 0147.62-8.3c7.11.56 14.4 1.96 20.25 6a21.65 21.65 0 016.28 6.68z" fill="#5275A0"/><path d="M693.57 381.44c7.1.57 14.39 1.96 20.25 6 5.85 4.04 10 11.25 8.63 18.25-1.6 8.14-10.01 13.44-18.25 14.43-8.25 1-16.47-1.27-24.6-2.94-18-3.7-36.55-4.55-54.8-2.5-4.56.5-8.88 1.42-12.85 3.75-1.28-10.85 25.8-24.99 34.02-28.67a97.86 97.86 0 0147.6-8.32z" fill="#52D2BC"/><path d="M618.99 411.59c13.43-11.8 47.94-19.82 72.34-17.24 7.35.78 14.76 2.97 20.41 7.73" stroke="#00AD9F" stroke-miterlimit="10" stroke-linecap="round" stroke-linejoin="round"/><path d="M593.89 278.93l131.24-.27a27.88 27.88 0 11.1 55.73l-89.76.18M196.83 375.25l-91.78.19a15.73 15.73 0 10.06 31.46l26.76-.05" stroke="#0B43A4" stroke-miterlimit="10" stroke-linecap="round" stroke-linejoin="round" stroke-dasharray="4 4"/><path d="M50.34 446.28c-31.44.06-32.09 46.94 7.9 46.85l589.55-1.22c24.74-.05 27.35-38.64-3.23-38.58-60.9.13-62.9-28.9-29.1-28.96" stroke="#C8DBFB" stroke-miterlimit="10" stroke-linecap="round" stroke-linejoin="round" stroke-dasharray="4 4"/><path d="M57.7 444.98a7.78 7.78 0 11-15.36 2.6 7.78 7.78 0 0115.35-2.6z" fill="#5193F4"/><path d="M630.54 424.58a7.78 7.78 0 01-15.33 2.6 7.78 7.78 0 0115.33-2.6z" fill="#0B43A4"/><path opacity="0.2" d="M639 560.12l-488.17 1a11.78 11.78 0 01-11.8-11.75l-.67-323.26a11.78 11.78 0 0111.76-11.8l488.16-1a11.78 11.78 0 0111.81 11.75l.66 323.25A11.78 11.78 0 01639 560.12z" fill="#5275A0"/><path d="M629.44 553.94l-488.16 1a11.78 11.78 0 01-11.81-11.75l-.67-323.26a11.78 11.78 0 0111.76-11.8l488.16-1a11.78 11.78 0 0111.81 11.75l.67 323.25a11.79 11.79 0 01-11.76 11.8z" fill="#fff"/><path d="M627.93 207.1l-486.07 1.01a12.85 12.85 0 00-12.82 12.86l.02 11.16 511.75-1.05-.02-11.16a12.84 12.84 0 00-12.86-12.81z" fill="#0056EC"/><path d="M142.45 554.95l73.44-.15-.66-322.85-86.28.18.63 310.04a12.82 12.82 0 0012.87 12.78z" fill="#C8DBFB"/><path d="M628.87 210.35c4.7 0 8.53 3.83 8.55 8.53l.66 323.25c0 2.3-.87 4.43-2.5 6.05a8.43 8.43 0 01-6.03 2.52l-488.17 1a8.57 8.57 0 01-8.56-8.53l-.66-323.25c0-2.29.88-4.43 2.5-6.05a8.43 8.43 0 016.03-2.51l488.15-1h.03zm0-3.24h-.03l-488.16 1c-6.5.02-11.78 5.3-11.77 11.8l.67 323.26a11.79 11.79 0 0011.8 11.76h.03l488.16-1c6.5-.02 11.77-5.3 11.76-11.81l-.67-323.25a11.79 11.79 0 00-11.8-11.76z" fill="#0056EC"/><path d="M203.5 530.26l-56.6.12a4.51 4.51 0 01-4.54-4.51v-.57c0-2.5 2.02-4.52 4.51-4.52l56.6-.12c2.5 0 4.54 2.01 4.54 4.51v.57a4.5 4.5 0 01-4.51 4.52zM196.7 311.24l-48.19.1a8.3 8.3 0 01-8.3-8.28l-.1-48.16a8.3 8.3 0 018.27-8.3l48.19-.1a8.3 8.3 0 018.3 8.27l.1 48.16c0 4.6-3.7 8.3-8.27 8.3z" fill="#fff"/><path d="M402.98 455.52l-167.88.34a5.92 5.92 0 01-5.92-5.89v-.73c0-3.26 2.63-5.9 5.89-5.92l167.88-.34c3.26 0 5.9 2.63 5.92 5.9v.72a5.9 5.9 0 01-5.89 5.92zM393.28 264.32l-132.66.28a5.92 5.92 0 01-5.92-5.89v-.73c0-3.26 2.63-5.9 5.89-5.92l132.66-.28c3.26 0 5.9 2.63 5.92 5.9v.72a5.9 5.9 0 01-5.89 5.92zM603 398.45l-176.88.38a5.91 5.91 0 01-5.92-5.9v-.72c0-3.26 2.63-5.9 5.89-5.92l176.89-.36c3.26 0 5.9 2.63 5.92 5.89v.73a5.91 5.91 0 01-5.9 5.9zM403.03 481.45l-167.88.34a5.92 5.92 0 01-5.92-5.89v-.72c0-3.26 2.63-5.9 5.89-5.92l167.88-.34c3.26 0 5.9 2.62 5.92 5.88v.73a5.9 5.9 0 01-5.89 5.92zM403.08 507.37l-167.88.34a5.92 5.92 0 01-5.92-5.9v-.72c0-3.26 2.62-5.9 5.88-5.92l167.89-.34c3.26 0 5.9 2.63 5.92 5.89v.73a5.9 5.9 0 01-5.89 5.92zM599.4 524.26l-169.2.36a9.74 9.74 0 01-9.76-9.73l-.14-72.64a9.74 9.74 0 019.73-9.76l169.2-.36a9.74 9.74 0 019.76 9.74l.15 72.63a9.74 9.74 0 01-9.73 9.76zM157.11 219.85a4.13 4.13 0 11-8.26.02 4.13 4.13 0 018.26-.02zM170.5 223.97a4.14 4.14 0 100-8.27 4.14 4.14 0 000 8.27zM192.14 219.79a4.13 4.13 0 11-8.26.01 4.13 4.13 0 018.26-.01zM248.2 259.6a11.95 11.95 0 10-23.78-2.39 11.95 11.95 0 0023.79 2.38z" fill="#C8DBFB"/><path d="M200.06 321.34l-52.97.11a2.24 2.24 0 01-2.24-2.22v-.27c0-1.24.99-2.22 2.22-2.24l52.97-.12c1.23 0 2.22 1 2.24 2.23v.27c0 1.23-1 2.24-2.22 2.24zM200.07 331.46l-52.97.11a2.24 2.24 0 01-2.24-2.22v-.27c0-1.24 1-2.23 2.22-2.24l52.98-.12c1.23 0 2.22 1 2.23 2.23v.27c0 1.23-.98 2.22-2.22 2.24z" fill="#fff"/><path d="M260.72 352.83l-14.98.15.12 62.73-12.93.03a8.26 8.26 0 01-8.28-8.24l-.24-116a8.32 8.32 0 018.32-8.35l27.83-.07.16 69.75z" fill="#C8DBFB"/><path d="M357.88 282.89v1.62a8.13 8.13 0 018.13 8.11l.23 113.1a8.13 8.13 0 01-8.12 8.15l-123.73.26a8.13 8.13 0 01-8.13-8.1l-.23-113.1a8.13 8.13 0 018.11-8.16l123.73-.26.01-1.62zm0 0h-.01l-123.73.26a9.75 9.75 0 00-9.73 9.76l.22 113.1a9.75 9.75 0 009.76 9.73h.01l123.72-.26a9.75 9.75 0 009.74-9.76l-.23-113.1a9.72 9.72 0 00-9.75-9.73zM564.48 375.96l-165.03-37.28a9.75 9.75 0 01-7.37-11.66l18.56-82.11a9.75 9.75 0 0111.67-7.36l165.03 37.28a9.75 9.75 0 017.36 11.66l-18.56 82.1a9.74 9.74 0 01-11.66 7.37z" fill="#C8DBFB"/><path d="M245.1 599.27l-23.1.05-5.66-29.4 34.29-.07-5.54 29.42z" fill="#0056EC"/><path d="M222.74 569.9c0 2.4-.46 6.42 1.15 6.49 1.6.06.94-3.83 2.76-3.72 1.17.07-.54 12.78 3.86 13.09 3.02.21 2.47-6.23 2.77-10.27.21-2.72 3.7-2.19 3.73-.39.04 2.03-.1 3.38 0 5.68.17 3.84 6.07 2.82 5.86-2.3-.21-5.13-.02-8.6-.02-8.6l-20.11.02z" fill="#C8DBFB"/><path d="M217.22 587.66c-.47 0-.92-.05-1.36-.15a4.83 4.83 0 01-3.56-2.66c-2.35-5 3.85-14.34 4.1-14.76l.32 1.69c-.05.1-5.45 8.12-3.33 12.62.5 1.07 1.4 1.73 2.74 2.02.38.08.77.12 1.16.12 8.32-.02 22.53-15.5 22.7-15.68.58-.7 1.66-.04 1.27.55-.66.74-15.1 16.23-24.04 16.25z" fill="#0C2340"/><path opacity="0.2" d="M459.87 185.52c-32.83-1.25-78 23.01-61.98 82.34-.34 5 2.66 8.6 5.86 7.62 3.2-.97.37-10.5.37-10.5 5.47-44.1 15.69-51.73 33.03-51.56l40.7-.08c10.07 1.47 28.35 8.5 31.1 43.81l10.13 1.87c.8-25.51-5.37-71.44-59.22-73.5z" fill="#5275A0"/><path d="M459.87 180.35c-32.83-1.25-78 23.01-61.98 82.33l6.23-2.87c5.47-44.1 15.69-51.73 33.03-51.57l40.7-.08c10.07 1.48 28.84 10.41 31.58 45.72l9.64-.02c.8-25.52-5.36-71.45-59.2-73.51z" fill="#EF832B"/><path d="M453.15 181.32l-4.87 10.7s.59 6.04 6.5 5.9c5.93-.12 6.72-2.84 6.72-2.84l.78-12.3-9.13-1.46z" fill="#FFB9A3"/><path d="M478.21 172.39c-5.54 9.8-8.01 12.87-15.28 14.35-9.4 1.91-19.95-4.43-15.05-20.06 3.99-12.75 10.06-10.79 15.98-10.3 5.92.47 20.36 5.4 14.35 16z" fill="#FFB9A3"/><path d="M456.12 164.63c-1.48-.76-3.38-.1-4.53 1.1a4.94 4.94 0 00-1.25 4.73 4.31 4.31 0 00-4.05 4.52c-1.56-3.61-.72-7.4-1.03-11.1-.3-3.72.1-7.74 2.5-10.58a12.05 12.05 0 013.6-2.77 18.67 18.67 0 0116.75-.25c1.07.54 3.76 2.22 7.52 1.32 7.18-1.74 11.36 3.11 7.06 7.65 1.38.5 2.9 1.12 3.52 2.45.17.34.25.76.04 1.07-.15.21-.41.32-.67.4-1.2.41-2.51.5-3.78.3.49.4 3.15.56 3.94 2.12 2.14 4.12-6.32 2.04-7.62 1.62 1.47.28 5.33 3.36 4.1 5.48-.24.43-5.47 3.46-10.95-2.91-1.28-1.48-2.87-2.86-4.75-3.36-1.48-.39-3.04.15-4.48.7-1.06.39-3.73 2.02-4.5 1.05-.79-1.04.3-2.67-1.42-3.53z" fill="#0C2340"/><path d="M510.48 253.86c-1.46 5.01-2.92 5.5-1.17 6.3 1.77.79 3.2-2.02 3.2-2.02l8.15 1.62s-1.84-5.28-3.12-5.91c-1.28-.64-7.06.01-7.06.01zM404.12 259.81c1.07 2.65 1.36 2.66 2.84 5.84 2.84 6.07-3.8 15.65-7.92 5.2-1.13-2.88-1.15-8.15-1.15-8.15l6.23-2.89z" fill="#FFB9A3"/><path d="M467.72 151.14c5.56.31 12.4-3.61 16.77 1.41.4.47 1.22-.14.86-.66-4.17-5.98-11.9-1.53-17.62-1.69-.61 0-.6.91-.01.94zM469.96 148.08c-3.8.66-7.47-1.14-11.28-.54-3.1.49-5.86 2.08-8.2 4.1-.6.52.19 1.55.87 1.1 3.27-2.15 6.42-4.01 10.51-3.7 2.97.2 5.49 1.1 8.44.2.74-.22.42-1.3-.34-1.16zM448.31 153.27c-2.67 1.67-4.21 3.89-4.54 7.08-.23 2.3-.3 7.58 2.03 8.88.55.3 1.13-.43.68-.9-1.5-1.5-1.62-5.58-1.5-7.49a8.8 8.8 0 013.72-6.92c.38-.28.04-.91-.39-.65zM489.47 162.4c-1.38-2.39-4.9-4.5-7.6-2.99-.43.25-.23.9.24.9 1.18.01 2.27-.13 3.42.22a5.94 5.94 0 013.2 2.29c.32.45 1.02.06.74-.42z" fill="#0C2340"/><path d="M308.94 409.79c17.2 6.32 32.15 26.04 28.71 40.4-3.88 16.2-15.05 23.19-15.05 23.19l-3.53-6.5s8.94-13.97 8.17-20.57c-1.25-10.56-14.59-17.63-14.59-17.63l-3.71-18.9z" fill="#0B43A4"/><path d="M266.57 592.59s-10.56 4.26-13.2 6.68l20.93-.05-.02-6.65-7.7.02zM312.83 592.18s3 3.47 3.55 6.96l-14.28.03c.25-2.4 1.27-4.72 2.66-6.97l8.07-.02z" fill="#0C2340"/><path d="M313.7 592.49l-9.75.01c.2-11.48-2.17-50.6-4.46-79.86-1.34-17.16-2.68-30.95-3.45-33.74l5.22-1.15 19.71-4.38c3.38 15.41-4.41 86.15-7.27 119.12z" fill="#047F76"/><path d="M277.87 478.29c-7.61 11.97-9.58 98.5-12.76 114.54l9.25.52S285 538.79 307.6 477.46l-29.73.83z" fill="#009790"/><path opacity="0.2" d="M311.5 477.46a791.17 791.17 0 00-12 35.18c-1.35-17.16-2.69-30.95-3.46-33.74l5.22-1.15 10.24-.29z" fill="#5275A0"/><path d="M277.87 478.29c-7.61 11.97-9.58 98.5-12.76 114.54l9.25.52S285 538.79 307.6 477.46l-29.73.83z" fill="#009790"/><path d="M283.67 381.68s-5.92 22.55 8.88 22.53l-.88 5.76 11.23 1.23-2.43-8.03s2.22-14.17 2.36-16.74c.28-4.78-13.12-13.2-19.16-4.75z" fill="#FFB9A3"/><path d="M247.1 356.41l-4.36.01.04 18.4h4.36l-.04-18.4z" fill="#0C2340"/><path d="M257.42 356.38l-25.01.05a3.17 3.17 0 01-3.18-3.16v-.65a3.17 3.17 0 013.16-3.18l25.02-.04a3.17 3.17 0 013.18 3.16v.65a3.16 3.16 0 01-3.17 3.18z" fill="#0056EC"/><path d="M241.57 379.62c-.11-4.16-3.57-3.08-1.67-9.89 1.17-4.22 9.88.68 8.8 3.6a108.89 108.89 0 00-2.34 7.54l-4.79-1.25z" fill="#FFB9A3"/><path d="M292.65 408.65c-22.12 1.46-23.58 8.92-33.47 7.75-14.65-1.71-12.09-28.91-10.27-38.66l-8.75.02s-15.77 61.93 34.04 50.48c-1.91 10.85 10.48 28.58-1.54 50.08 18.9 5.14 36.55 6.39 51.65-.1-2.64-3.56 5.42-39.55-10.36-65.45-3.08-5.07-19.68-4.23-21.3-4.12z" fill="#0056EC"/><path d="M292.65 408.65c-22.12 1.46-23.58 8.92-33.47 7.75-14.65-1.71-12.09-28.91-10.27-38.66l-8.75.02s-15.77 61.93 34.04 50.48c-1.91 10.85 10.48 28.58-1.54 50.08 18.9 5.14 36.55 6.39 51.65-.1-2.64-3.56 5.42-39.55-10.36-65.45-3.08-5.07-19.68-4.23-21.3-4.12z" fill="#0056EC"/><path d="M289.6 386.01c1.44.38 3.11.65 3.89 1.87.5.8.47 1.78.42 2.7a2.2 2.2 0 014.3.5c.02.48-.14.93-.32 1.37-.44 1.1-1 2.14-1.64 3.13 1.8.67 3.32 5.95 4.22 7.6 3.03-.77 9.8-3.38 10.38-14.13.27-5.01-1.25-11.01-6.69-14.34-3.84-2.35-10.2-2.38-14.6-1.26-3.56.9-9.24 4.47-6.6 8.62 1.33 2.1 4.25 3.33 6.64 3.94z" fill="#EF832B"/><path d="M308.55 379.17c2.06-.68 4.67-.32 5.9 1.4.96 1.34.88 3.1 1.19 4.7.14.78.42 1.55 1.02 2.09.71.63 1.75.8 2.72.84 2.39.13 4.79-.18 7.14.23 2.35.4 4.75 1.72 5.42 3.9.37 1.23.16 2.55.62 3.74.66 1.78 2.56 2.8 4.21 3.84a27.43 27.43 0 018.69 8.64c1.37 2.2 2.43 4.63 2.6 7.17.15 2.55 2 5.92 1.5 8.42-.54 2.7-3.2 6.37-8.45 8.06-9.09 2.92-11.98 4.18-20.69-.99-1.05-.62-3.1-2.74-4.05-3.5a4.64 4.64 0 01-1.48-2.35c-.73-2.5.11-5.2 1.41-7.46 1.3-2.27 3.07-4.28 4.4-6.54.8-1.36 1.44-2.87 1.38-4.43a2.4 2.4 0 00-.6-1.6c-.38-.36-.9-.54-1.42-.63-1.91-.38-4.02.01-5.74-.85a4.04 4.04 0 01-2.1-4.62c.35-1.17 1.24-2.16 1.48-3.34.36-1.72-.7-3.47-2.2-4.48-1.5-1-3.33-1.4-5.13-1.68-.9-.15-1.81-.3-2.53-.81a3.35 3.35 0 01-1.28-2.8c.06-3.38 2.8-5.9 5.99-6.95z" fill="#EF832B"/><path d="M306.9 388.24c10.94 2.36-2.86 12.73 2.93 17.69 1.65 1.4 3.57.97 5.5 1.23 7.43 1.02 3.36 6.07 2.85 10.02-.08.6.91.72 1.04.15.63-2.73 3.13-6.07 1.85-8.97-1.14-2.56-3.96-2.25-6.28-2.34-2.9-.08-6.1 0-5.01-5.75.24-1.28 1.26-2.58 1.77-3.8.56-1.4.95-2.77.64-4.3-.53-2.57-2.67-4.08-5.14-4.49-.35-.08-.52.47-.14.56zM284.37 374.84c8.44-4.28 16.84-3.42 23.96 2.85.5.43 1.14-.22.72-.7-6.25-7.05-17.36-8.28-24.9-2.56-.25.2-.05.56.22.41z" fill="#EF832B"/><path d="M567.74 401.29l-3.65 7.36 8.92 3.65.96-8.46-6.23-2.55z" fill="#FFB9A3"/><path d="M573.12 377.37c-20.26 8.82-11.95 30.2.38 27.68 6-1.21 9.03-20.54 9.03-20.54l-9.4-7.14z" fill="#FFB9A3"/><path d="M579.86 374.34c-.67-1.23-1.3-2.56-2.4-3.44-1.1-.88-2.84-1.17-3.87-.21-1.36 1.26-.56 3.63.82 4.88-1.19.15-2.6-.68-3.48.15-.66.61-.43 1.71-.04 2.54.89 1.93 2.35 3.62 4.15 4.75-1.02.59-2.22 1.72-1.6 2.73.17.27.45.47.63.74.38.65.01 1.5-.4 2.14a38.88 38.88 0 01-2.05 3.07c.7-.96 2.4-.57 2.9.5.5 1.07.06 2.39-.73 3.26-.44.49-.99.9-1.64 1.04-.55.13-3.02 7.72-1.1 9.21 2.37 1.83 10.41.24 11.58-1.83 1.17 1.26 2.87 2.22 4.56 1.88 1.69-.34 2.97-2.42 2.06-3.88a4.9 4.9 0 005.29-1.4 4.86 4.86 0 00.44-5.46c.99-.29 1.2-1.63.94-2.64a6.15 6.15 0 00-4.2-4.31c1.02.01 1.83-1.02 1.88-2.05.05-1.02-.49-2-1.14-2.79-1.9-2.35-4.15-2.96-6.96-3.32-2.82-.34-4.38-3.23-5.64-5.56z" fill="#4A49CA"/><path d="M560.88 591.2s-11.86 5.68-13.45 7.45c0 0 23.33 1.06 25.16-.05 1.83-1.1-3.73-7.43-3.73-7.43l-7.99.02zM604.99 584.75s-10.42 8.03-11.62 10.09c0 0 24.6-3.65 24.6-5.25 0-1.61-5.2-6.5-5.2-6.5l-7.78 1.66z" fill="#0C2340"/><path d="M572.33 481.29c-.44 2.41-16.68 66.47 29.79 104.89l13.45-3.08s-15.66-14.68-23.04-41.11c-6.98-25-1.45-27.44 2.74-41.2 4.64-15.22 1.18-26.28 1.18-26.28l-24.12 6.78z" fill="#D8742A"/><path d="M550.13 481.1c-7.36 17.59-20 77.54 7.55 111.3l13.76-.04s-10.84-11.87-12.06-39.43c-1.21-27.55 5.8-39.64 10.74-48.73 4.95-9.1 9.53-24.53 9.53-24.53l-29.51 1.42z" fill="#EF832B"/><path d="M540.43 372.04c-3.65 12.87-4.85 36.68 13.45 46.26l12.25-2.98s-22.1-11.58-17.36-40.84l-8.34-2.44z" fill="#0B43A4"/><path d="M506.67 365.45l9.5-1.17s-1.14 39.93 45 43.3c35.22 2.56 37.98 68.63 37.98 68.63-11.36 7.64-30.4 9.96-54.82 8.2 0 0 1.55-47.12-2.32-60.03 0-.01-38.34-12.06-35.34-58.93z" fill="#0056EC"/><path d="M495.04 358.2c-1.6 1.87 5.1 4.23 11.63 7.25l8.36-1.02s.1-1.67 0-3.4c-.1-1.74-.98-2.73-1.97-1.24-.99 1.5-5.2 2-7.2.63-2.01-1.38-9.22-4.08-10.82-2.22zM540.43 372.04c-3.06-3-2.24-2.83-2.24-2.83l9.33 2.11s2.05-4.56 3.8-4.67c1.73-.13-1.32 3.13-.62 4.35.7 1.21-1.91 3.5-1.91 3.5l-8.36-2.46z" fill="#FFB9A3"/><path d="M585.1 378.73c1.91.49 3.86.68 5.45 2 1.57 1.3 2.29 3.52 1.15 5.32-.54.84.73 1.5 1.3.76 1.44-1.9 1.05-4.5-.4-6.3-1.7-2.05-4.83-2.91-7.39-2.64-.45.05-.62.73-.11.86zM593.53 396.04c1.27.74 2.32 1.94 1.79 3.51-.5 1.45-1.97 2.3-3.15 3.13-.57.41-.08 1.27.55.94 1.75-.92 3.6-2.22 3.88-4.36.24-1.86-1-3.27-2.56-4.12-.57-.29-1.06.56-.5.9zM572.23 405.7c4.3 2.68 10.38 2.24 13.94-1.52.44-.47-.16-1.35-.72-.93-3.89 2.89-8.3 3.81-12.86 1.85-.4-.18-.75.36-.36.6z" fill="#4A49CA"/><path d="M594.1 381.55c2.47 2.35 0 5.57-1.59 7.58-.36.44.2 1.04.63.63 1.41-1.31 2.83-2.77 3.02-4.78a3.71 3.71 0 00-1.83-3.72c-.18-.1-.4.15-.23.3z" fill="#4A49CA"/><path d="M319.66 85.3l-3.8-9.3 36.72-13.94-32.92 23.24z" fill="#0B43A4"/><path d="M321.5 79.56l31.08-17.5-21.63 21.96-9.44-4.46zM307.46 72.21l45.12-10.15-36.72 13.95-8.4-3.8z" fill="#5193F4"/><path d="M321.5 79.56l-1.84 5.74 5.61-3.96-3.76-1.78z" fill="#0056EC"/><path d="M315.34 84.05c-9.58-1.62-22.6 8.08-17 18.17 1.9 3.43 11.73 1.94 11-1.85-.36-1.82-2.58-2.6-4.41-2.39-10.71 1.24-11.15 10.2-10.66 12.49 2.45 11.8 20.55 7.82 26.64 6.15" stroke="#C8DBFB" stroke-miterlimit="10" stroke-linecap="round" stroke-linejoin="round" stroke-dasharray="4 4"/></g><defs><clipPath id="clip0"><path fill="#fff" d="M0 0h770v657H0z"/></clipPath></defs></svg>